<svg width="613" height="562" viewBox="0 0 613 562" fill="none" xmlns="http://www.w3.org/2000/svg">
<circle cx="263.676" cy="287.033" r="263.676" fill="#12141D"/>
<circle cx="473.839" cy="479.071" r="71.6369" fill="#303551"/>
<path d="M443.631 443.684L449.122 505.958L473.839 514.171L498.557 505.958L504.048 443.684H443.631ZM492.892 456.271L492.137 463.713L473.997 471.47L473.949 471.486H491.492L489.478 494.551L474.028 499.066L458.483 494.472L457.476 482.845H465.17L465.674 488.871L473.949 490.964L482.556 488.541L483.138 478.849L456.973 478.77V478.754L456.941 478.77L456.375 471.486L474.012 464.138L475.035 463.713H455.698L454.786 456.271H492.892Z" fill="#A1C4E4"/>
<circle cx="540.637" cy="253.637" r="71.6369" fill="#303551"/>
<path d="M510.429 218.25L515.92 280.777L540.558 289.024L565.354 280.777L570.845 218.25H510.429ZM558.919 238.455H530.001L530.646 246.259H558.274L556.135 269.703L540.731 273.969V274.016H540.558L525.029 269.703L524.085 257.728H531.59L532.141 263.747L540.558 266.038L549.007 263.747L549.951 253.921H523.692L521.678 230.92H559.612L558.919 238.455Z" fill="#A1C4E4"/>
<circle cx="71.6369" cy="489.429" r="71.6369" fill="#303551"/>
<path d="M71.6722 466.12C98.042 466.12 118.319 477.228 118.319 489.429C118.319 501.629 98.0266 512.737 71.6722 512.737C45.3025 512.737 25.0251 501.629 25.0251 489.429C25.0251 477.228 45.3178 466.12 71.6722 466.12ZM71.6722 463.536C44.4871 463.536 22.4404 475.121 22.4404 489.429C22.4404 503.737 44.4871 515.321 71.6722 515.321C98.8574 515.321 120.904 503.737 120.904 489.429C120.904 475.121 98.8574 463.536 71.6722 463.536ZM56.0104 487.352C54.795 493.582 50.5026 492.936 45.2255 492.936L47.3333 482.075C53.1795 482.075 57.1489 481.444 56.0104 487.352ZM37.4254 503.937H43.0716L44.4101 497.044C50.7333 497.044 54.6565 497.506 58.2873 494.106C62.3028 490.413 63.349 483.844 60.4874 480.551C58.9951 478.828 56.595 477.982 53.3334 477.982H42.4562L37.4254 503.937ZM65.9952 471.074H71.6107L70.2722 477.967C75.1185 477.967 79.6109 477.613 81.7802 479.613C84.0571 481.705 82.9648 484.382 80.5032 497.013H74.8108C77.1801 484.798 77.6262 483.782 76.7647 482.859C75.9339 481.967 74.0415 482.151 69.4722 482.151L66.5798 497.013H60.9643L65.9952 471.074ZM100.134 487.352C98.9036 493.675 94.4881 492.936 89.3495 492.936L91.4573 482.075C97.3343 482.075 101.273 481.444 100.134 487.352ZM81.5494 503.937H87.211L88.5495 497.044C95.1958 497.044 98.8728 497.429 102.427 494.106C106.442 490.413 107.488 483.844 104.627 480.551C103.134 478.828 100.734 477.982 97.4728 477.982H86.5956L81.5494 503.937Z" fill="#A1C4E4"/>
<circle cx="133.78" cy="125.202" r="71.6369" fill="#303551"/>
<path d="M106.731 113.147L120.861 151.847C110.977 147.058 104.17 136.924 104.17 125.202C104.17 120.901 105.089 116.836 106.731 113.147ZM153.77 123.713C153.77 120.052 152.462 117.518 151.334 115.541C149.83 113.105 148.424 111.031 148.424 108.595C148.424 105.866 150.485 103.333 153.394 103.333C153.519 103.333 153.645 103.347 153.784 103.361C148.508 98.53 141.492 95.5787 133.78 95.5787C123.436 95.5787 114.332 100.883 109.028 108.929C109.724 108.957 110.379 108.971 110.935 108.971C114.026 108.971 118.829 108.595 118.829 108.595C120.43 108.497 120.611 110.85 119.024 111.031C119.024 111.031 117.423 111.212 115.641 111.309L126.429 143.383L132.917 123.95L128.309 111.309C126.708 111.212 125.204 111.031 125.204 111.031C123.603 110.933 123.798 108.497 125.385 108.595C125.385 108.595 130.272 108.971 133.181 108.971C136.272 108.971 141.074 108.595 141.074 108.595C142.675 108.497 142.856 110.85 141.269 111.031C141.269 111.031 139.668 111.212 137.886 111.309L148.591 143.146L151.543 133.277C152.796 129.184 153.77 126.246 153.77 123.713ZM134.295 127.792L125.413 153.615C128.072 154.395 130.87 154.826 133.78 154.826C137.232 154.826 140.531 154.227 143.608 153.142C143.524 153.016 143.455 152.877 143.399 152.738L134.295 127.792ZM159.77 110.989C159.895 111.936 159.965 112.938 159.965 114.038C159.965 117.045 159.408 120.414 157.71 124.646L148.661 150.803C157.473 145.666 163.389 136.13 163.389 125.202C163.389 120.052 162.081 115.207 159.77 110.989ZM168.303 125.202C168.303 144.246 152.81 159.726 133.78 159.726C114.736 159.726 99.2559 144.232 99.2559 125.202C99.2559 106.159 114.736 90.6786 133.78 90.6786C152.81 90.6786 168.303 106.159 168.303 125.202ZM166.716 125.202C166.716 107.036 151.933 92.2656 133.78 92.2656C115.613 92.2656 100.843 107.036 100.843 125.202C100.843 143.369 115.627 158.139 133.78 158.139C151.946 158.139 166.716 143.369 166.716 125.202Z" fill="#A1C4E4"/>
<circle cx="432.637" cy="71.6369" r="71.6369" fill="#303551"/>
<path fill-rule="evenodd" clip-rule="evenodd" d="M400 53.0102V90.4263L432.668 109L465.393 90.425V53.0114L432.668 34L400 53.0102ZM440.085 94.8566H449.598V48.6616H440.085V67.9703H423.521V48.6616H414.007V94.8566H423.521V75.326H440.085V94.8566Z" fill="#A1C4E4"/>
</svg>
