<svg width="183" height="26" viewBox="0 0 183 26" fill="none" xmlns="http://www.w3.org/2000/svg">
<path d="M3.34961 15.6289V15.6875L8.97461 17.6699V20.3262L0.566406 16.7422V14.5254L8.97461 10.9512V13.6074L3.34961 15.6289ZM26.1621 6.78125V8.5L24.6387 8.79297V16.7324C24.6387 18.1061 24.1895 19.1966 23.291 20.0039C22.3991 20.8047 21.2695 21.2051 19.9023 21.2051C18.418 21.2051 17.2428 20.8438 16.377 20.1211C15.5111 19.3984 15.0944 18.334 15.127 16.9277L15.1465 16.8691H17.9199C17.9199 17.6178 18.099 18.1647 18.457 18.5098C18.8151 18.8483 19.2969 19.0176 19.9023 19.0176C20.4297 19.0176 20.8757 18.8158 21.2402 18.4121C21.6113 18.002 21.7969 17.4421 21.7969 16.7324V8.79297L20.2734 8.5V6.78125H24.6387H26.1621ZM34.4336 19.6621C34.0951 20.1569 33.6751 20.5378 33.1738 20.8047C32.679 21.0716 32.1126 21.2051 31.4746 21.2051C30.3613 21.2051 29.4889 20.8503 28.8574 20.1406C28.2259 19.4245 27.9102 18.3145 27.9102 16.8105V12.4453L26.748 12.1523V10.4336H27.9102H30.7617V16.8301C30.7617 17.5983 30.8887 18.1517 31.1426 18.4902C31.403 18.8223 31.7871 18.9883 32.2949 18.9883C32.7441 18.9883 33.1315 18.9167 33.457 18.7734C33.7891 18.6237 34.0592 18.4121 34.2676 18.1387V12.4453L33.0176 12.1523V10.4336H34.2676H37.1191V18.998L38.3984 19.291V21H34.6191L34.4336 19.6621ZM48.1445 14.0664H46.2305L45.9277 12.748C45.7324 12.5918 45.485 12.4616 45.1855 12.3574C44.8926 12.2533 44.5671 12.2012 44.209 12.2012C43.7077 12.2012 43.3105 12.3151 43.0176 12.543C42.7246 12.7643 42.5781 13.0443 42.5781 13.3828C42.5781 13.7018 42.7181 13.9688 42.998 14.1836C43.278 14.3919 43.8379 14.5775 44.6777 14.7402C45.9863 15.0007 46.9564 15.3848 47.5879 15.8926C48.2194 16.3939 48.5352 17.0872 48.5352 17.9727C48.5352 18.9232 48.125 19.7012 47.3047 20.3066C46.4909 20.9056 45.4167 21.2051 44.082 21.2051C43.2682 21.2051 42.5195 21.0879 41.8359 20.8535C41.1589 20.6126 40.5566 20.2708 40.0293 19.8281L40 17.4551H41.9922L42.3828 18.832C42.5521 18.9753 42.7832 19.0827 43.0762 19.1543C43.3691 19.2194 43.6751 19.252 43.9941 19.252C44.5736 19.252 45.013 19.1478 45.3125 18.9395C45.6185 18.7311 45.7715 18.4479 45.7715 18.0898C45.7715 17.7773 45.6185 17.5072 45.3125 17.2793C45.0065 17.0514 44.4434 16.8496 43.623 16.6738C42.3796 16.4199 41.4388 16.0456 40.8008 15.5508C40.1693 15.0495 39.8535 14.3691 39.8535 13.5098C39.8535 12.6243 40.2181 11.8626 40.9473 11.2246C41.6764 10.5801 42.7148 10.2578 44.0625 10.2578C44.8828 10.2578 45.6576 10.3685 46.3867 10.5898C47.1224 10.8112 47.6986 11.0944 48.1152 11.4395L48.1445 14.0664ZM54.0234 7.8457V10.4336H55.8789V12.4355H54.0234V17.8164C54.0234 18.2266 54.1081 18.5195 54.2773 18.6953C54.4466 18.8711 54.6745 18.959 54.9609 18.959C55.1562 18.959 55.3255 18.9525 55.4688 18.9395C55.6185 18.9199 55.7845 18.8906 55.9668 18.8516L56.2109 20.9121C55.8919 21.0098 55.5762 21.0814 55.2637 21.127C54.9512 21.179 54.6126 21.2051 54.248 21.2051C53.265 21.2051 52.5065 20.9349 51.9727 20.3945C51.4453 19.8542 51.1816 18.998 51.1816 17.8262V12.4355H49.6289V10.4336H51.1816V7.8457H54.0234ZM57.1875 19.291L58.5645 18.998V12.4453L57.041 12.1523V10.4336H61.416V18.998L62.7832 19.291V21H57.1875V19.291ZM61.416 7.9043H58.5645V5.76562H61.416V7.9043ZM63.5645 19.291L64.9316 18.998V12.4453L63.418 12.1523V10.4336H67.5879L67.7148 11.9473C68.0664 11.4069 68.4993 10.987 69.0137 10.6875C69.528 10.388 70.1042 10.2383 70.7422 10.2383C71.8099 10.2383 72.6432 10.5736 73.2422 11.2441C73.8411 11.9147 74.1406 12.9661 74.1406 14.3984V18.998L75.5078 19.291V21H70.0586V19.291L71.2793 18.998V14.4082C71.2793 13.6986 71.1361 13.1973 70.8496 12.9043C70.5632 12.6048 70.1302 12.4551 69.5508 12.4551C69.1732 12.4551 68.8346 12.5332 68.5352 12.6895C68.2357 12.8392 67.985 13.054 67.7832 13.334V18.998L68.9355 19.291V21H63.5645V19.291ZM82.4902 6.78125C83.9811 6.78125 85.1335 7.16211 85.9473 7.92383C86.7676 8.67904 87.1777 9.68164 87.1777 10.9316C87.1777 12.1947 86.7676 13.2038 85.9473 13.959C85.1335 14.7142 83.9811 15.0918 82.4902 15.0918H79.248V20.0137L80.8398 20.1406V21H76.4941V20.1406L78.0859 20.0137V7.77734L76.4941 7.65039V6.78125H78.0859H82.4902ZM79.248 14.0957H82.4902C83.6621 14.0957 84.541 13.7995 85.127 13.207C85.7194 12.6081 86.0156 11.8561 86.0156 10.9512C86.0156 10.0397 85.7227 9.28451 85.1367 8.68555C84.5508 8.08008 83.6686 7.77734 82.4902 7.77734H79.248V14.0957ZM96.3867 21C96.3086 20.6419 96.2533 20.3327 96.2207 20.0723C96.1882 19.8118 96.1719 19.5482 96.1719 19.2812C95.7812 19.8346 95.2604 20.2936 94.6094 20.6582C93.9583 21.0228 93.2259 21.2051 92.4121 21.2051C91.377 21.2051 90.5762 20.9382 90.0098 20.4043C89.4434 19.8704 89.1602 19.1478 89.1602 18.2363C89.1602 17.2598 89.5801 16.485 90.4199 15.9121C91.2598 15.3392 92.3991 15.0527 93.8379 15.0527H96.1719V13.6562C96.1719 12.901 95.9277 12.3086 95.4395 11.8789C94.9577 11.4492 94.2806 11.2344 93.4082 11.2344C92.8223 11.2344 92.2852 11.3158 91.7969 11.4785C91.3151 11.6348 90.9115 11.8496 90.5859 12.123L90.4883 13.5391H89.5215L89.5312 11.5078C90.0195 11.1302 90.6022 10.8242 91.2793 10.5898C91.9629 10.3555 92.6888 10.2383 93.457 10.2383C94.6224 10.2383 95.5599 10.5345 96.2695 11.127C96.9792 11.7194 97.334 12.569 97.334 13.6758V18.8711C97.334 19.0859 97.3372 19.2943 97.3438 19.4961C97.3568 19.6914 97.3796 19.8835 97.4121 20.0723L98.4668 20.1406V21H96.3867ZM92.5391 20.1699C93.3854 20.1699 94.1309 19.9746 94.7754 19.584C95.4199 19.1934 95.8854 18.6888 96.1719 18.0703V15.9512H93.8184C92.7572 15.9512 91.9076 16.1725 91.2695 16.6152C90.638 17.0514 90.3223 17.6048 90.3223 18.2754C90.3223 18.8418 90.5176 19.3008 90.9082 19.6523C91.3053 19.9974 91.849 20.1699 92.5391 20.1699ZM102.656 10.4336L102.803 12.1914V12.3184C103.102 11.6673 103.509 11.1595 104.023 10.7949C104.544 10.4238 105.16 10.2383 105.869 10.2383C106.019 10.2383 106.162 10.2513 106.299 10.2773C106.442 10.2969 106.559 10.3197 106.65 10.3457L106.494 11.4395L105.625 11.3809C104.889 11.3809 104.284 11.5892 103.809 12.0059C103.34 12.416 103.005 12.9824 102.803 13.7051V20.0137L104.395 20.1406V21H100.049V20.1406L101.641 20.0137V11.4297L100.049 11.3027V10.4336H101.641H102.656ZM115.84 13.6953H114.883L114.746 12.2012C114.453 11.8952 114.082 11.6576 113.633 11.4883C113.19 11.319 112.679 11.2344 112.1 11.2344C111.247 11.2344 110.605 11.4199 110.176 11.791C109.753 12.1556 109.541 12.5853 109.541 13.0801C109.541 13.5684 109.723 13.972 110.088 14.291C110.459 14.61 111.195 14.89 112.295 15.1309C113.551 15.4108 114.492 15.7949 115.117 16.2832C115.742 16.765 116.055 17.4225 116.055 18.2559C116.055 19.1348 115.697 19.8477 114.98 20.3945C114.271 20.9349 113.33 21.2051 112.158 21.2051C111.377 21.2051 110.664 21.0977 110.02 20.8828C109.382 20.6615 108.828 20.3522 108.359 19.9551V17.8262H109.307L109.473 19.3301C109.785 19.6426 110.179 19.8704 110.654 20.0137C111.136 20.1504 111.637 20.2188 112.158 20.2188C113.005 20.2188 113.672 20.0332 114.16 19.6621C114.648 19.291 114.893 18.8418 114.893 18.3145C114.893 17.8197 114.688 17.3867 114.277 17.0156C113.874 16.6445 113.141 16.3418 112.08 16.1074C110.824 15.834 109.889 15.4727 109.277 15.0234C108.672 14.5677 108.369 13.9329 108.369 13.1191C108.369 12.3118 108.711 11.6315 109.395 11.0781C110.078 10.5182 110.98 10.2383 112.1 10.2383C112.874 10.2383 113.581 10.3587 114.219 10.5996C114.863 10.834 115.387 11.153 115.791 11.5566L115.84 13.6953ZM118.193 15.5605C118.193 14.0046 118.62 12.7285 119.473 11.7324C120.326 10.7363 121.455 10.2383 122.861 10.2383C124.274 10.2383 125.407 10.7363 126.26 11.7324C127.113 12.7285 127.539 14.0046 127.539 15.5605V15.8828C127.539 17.4453 127.113 18.7246 126.26 19.7207C125.413 20.7103 124.287 21.2051 122.881 21.2051C121.462 21.2051 120.326 20.7103 119.473 19.7207C118.62 18.7246 118.193 17.4453 118.193 15.8828V15.5605ZM119.365 15.8828C119.365 17.1068 119.674 18.1354 120.293 18.9688C120.911 19.8021 121.774 20.2188 122.881 20.2188C123.968 20.2188 124.821 19.8021 125.439 18.9688C126.058 18.1354 126.367 17.1068 126.367 15.8828V15.5605C126.367 14.3561 126.055 13.334 125.43 12.4941C124.811 11.6543 123.955 11.2344 122.861 11.2344C121.768 11.2344 120.911 11.6543 120.293 12.4941C119.674 13.334 119.365 14.3561 119.365 15.5605V15.8828ZM129.229 20.1406L130.82 20.0137V11.4297L129.229 11.3027V10.4336H131.855L131.963 12.2793C132.301 11.6283 132.757 11.127 133.33 10.7754C133.91 10.4173 134.593 10.2383 135.381 10.2383C136.527 10.2383 137.399 10.5898 137.998 11.293C138.597 11.9896 138.896 13.0801 138.896 14.5645V20.0137L140.488 20.1406V21H136.133V20.1406L137.725 20.0137V14.5742C137.725 13.3633 137.497 12.5072 137.041 12.0059C136.592 11.5046 135.951 11.2539 135.117 11.2539C134.297 11.2539 133.626 11.472 133.105 11.9082C132.591 12.3379 132.22 12.9108 131.992 13.627V20.0137L133.584 20.1406V21H129.229V20.1406ZM150 13.6953H149.043L148.906 12.2012C148.613 11.8952 148.242 11.6576 147.793 11.4883C147.35 11.319 146.839 11.2344 146.26 11.2344C145.407 11.2344 144.766 11.4199 144.336 11.791C143.913 12.1556 143.701 12.5853 143.701 13.0801C143.701 13.5684 143.883 13.972 144.248 14.291C144.619 14.61 145.355 14.89 146.455 15.1309C147.712 15.4108 148.652 15.7949 149.277 16.2832C149.902 16.765 150.215 17.4225 150.215 18.2559C150.215 19.1348 149.857 19.8477 149.141 20.3945C148.431 20.9349 147.49 21.2051 146.318 21.2051C145.537 21.2051 144.824 21.0977 144.18 20.8828C143.542 20.6615 142.988 20.3522 142.52 19.9551V17.8262H143.467L143.633 19.3301C143.945 19.6426 144.339 19.8704 144.814 20.0137C145.296 20.1504 145.798 20.2188 146.318 20.2188C147.165 20.2188 147.832 20.0332 148.32 19.6621C148.809 19.291 149.053 18.8418 149.053 18.3145C149.053 17.8197 148.848 17.3867 148.438 17.0156C148.034 16.6445 147.301 16.3418 146.24 16.1074C144.984 15.834 144.049 15.4727 143.438 15.0234C142.832 14.5677 142.529 13.9329 142.529 13.1191C142.529 12.3118 142.871 11.6315 143.555 11.0781C144.238 10.5182 145.14 10.2383 146.26 10.2383C147.035 10.2383 147.741 10.3587 148.379 10.5996C149.023 10.834 149.548 11.153 149.951 11.5566L150 13.6953ZM158.154 22.2207H156.045L161.26 6.78125H163.369L158.154 22.2207ZM170.303 15.7363V15.6777L164.59 13.666V11.0391L173.096 14.6133V16.8301L164.59 20.4141V17.7773L170.303 15.7363Z" fill="#FBFDFF"/>
</svg>
